0
SECTION
2
HEADER
9
$INSUNITS
70
1
9
$ACADVER
1
AC1014
9
$HANDSEED
5
FFFF
0
ENDSEC
0
SECTION
2
TABLES
0
TABLE
2
VPORT
5
8
100
AcDbSymbolTable
0
ENDTAB
0
TABLE
2
LTYPE
5
5
100
AcDbSymbolTable
0
LTYPE
5
14
100
AcDbSymbolTableRecord
100
AcDbLinetypeTableRecord
2
BYBLOCK
70
0
0
LTYPE
5
15
100
AcDbSymbolTableRecord
100
AcDbLinetypeTableRecord
2
BYLAYER
70
0
0
LTYPE
5
16
100
AcDbSymbolTableRecord
100
AcDbLinetypeTableRecord
2
DASHED
70
0
3
Dashed __ __ __ __ __ __ __ __ __ __ __ __ __ _
72
65
73
2
40
0.75
49
0.5
74
0
49
-0.25
74
0
0
ENDTAB
0
TABLE
2
LAYER
5
2
100
AcDbSymbolTable
70
3
0
LAYER
5
50
100
AcDbSymbolTableRecord
100
AcDbLayerTableRecord
2
1
70
0
62
7
6
DASHED
0
LAYER
5
51
100
AcDbSymbolTableRecord
100
AcDbLayerTableRecord
2
0
70
0
62
7
6
CONTINUOUS
0
ENDTAB
0
TABLE
2
STYLE
5
3
100
AcDbSymbolTable
70
1
0
STYLE
5
11
100
AcDbSymbolTableRecord
100
AcDbTextStyleTableRecord
2
STANDARD
70
0
0
ENDTAB
0
TABLE
2
VIEW
5
6
100
AcDbSymbolTable
70
0
0
ENDTAB
0
TABLE
2
UCS
5
7
100
AcDbSymbolTable
70
0
0
ENDTAB
0
TABLE
2
APPID
5
9
100
AcDbSymbolTable
70
2
0
APPID
5
12
100
AcDbSymbolTableRecord
100
AcDbRegAppTableRecord
2
ACAD
70
0
0
ENDTAB
0
TABLE
2
DIMSTYLE
5
A
100
AcDbSymbolTable
70
1
0
ENDTAB
0
TABLE
2
BLOCK_RECORD
5
1
100
AcDbSymbolTable
70
1
0
BLOCK_RECORD
5
1F
100
AcDbSymbolTableRecord
100
AcDbBlockTableRecord
2
*MODEL_SPACE
0
BLOCK_RECORD
5
1B
100
AcDbSymbolTableRecord
100
AcDbBlockTableRecord
2
*PAPER_SPACE
0
ENDTAB
0
ENDSEC
0
SECTION
2
BLOCKS
0
BLOCK
5
20
100
AcDbEntity
100
AcDbBlockBegin
2
*MODEL_SPACE
0
ENDBLK
5
21
100
AcDbEntity
100
AcDbBlockEnd
0
BLOCK
5
1C
100
AcDbEntity
100
AcDbBlockBegin
2
*PAPER_SPACE
0
ENDBLK
5
1D
100
AcDbEntity
100
AcDbBlockEnd
0
ENDSEC
0
SECTION
2
ENTITIES
0
POINT
5
100
100
AcDbEntity
8
0
100
AcDbPoint
10
-8.4201868309174071
20
4.0308648360112693
30
0
0
LWPOLYLINE
5
101
100
AcDbEntity
8
0
100
AcDbPolyline
90
194
70
1
43
0.0
10
9.1584863999999975
20
13.665913249999999
42
-0.0034359999999855244
10
9.3914975000000016
20
13.648586600000005
42
-0.003021000000018511
10
9.5880908499999986
20
13.631412549999999
42
-0.021284000000013622
10
9.6832168000000021
20
13.6184203
42
0.10132199999998683
10
9.787369
20
13.620884400000003
42
0.12242800000000721
10
9.8743656499999997
20
13.66499395
42
0.045320999999989814
10
9.9844721500000038
20
13.7791549
42
0.0039990000000004458
10
10.233216800000003
20
14.093936850000004
42
-0.011681999999995113
10
10.537107950000001
20
14.466589299999995
42
-0.15431099999999082
10
10.686027749999997
20
14.559357299999997
42
-0.15192599999999373
10
10.862142800000001
20
14.550431650000004
42
-0.011221000000001534
10
11.316789550000001
20
14.371667349999997
42
-0.0045829999999998112
10
11.605119850000001
20
14.247639099999997
42
-0.068111999999997119
10
11.698511400000001
20
14.190198449999999
42
-0.18744100000002165
10
11.7333684
20
14.128288149999999
42
-0.077847999999987108
10
11.732082499999999
20
14.030703600000002
42
0.013464000000022453
10
11.719933999999999
20
13.945502350000003
42
0.0032149999999888158
10
11.704469749999999
20
13.803237949999998
42
0.0033020000000044385
10
11.688833299999999
20
13.63955945
42
0.0032609999999809957
10
11.675289599999999
20
13.474999999999996
42
-0.0031169999999763032
10
11.662092899999999
20
13.314090850000001
42
-0.0036340000000006311
10
11.647491950000001
20
13.161394799999995
42
-0.0032259999999880093
10
11.633374
20
13.032446899999998
42
-0.021864999999980917
10
11.623203049999999
20
12.969109999999997
42
0.13098799999998584
10
11.626721499999997
20
12.908033
42
0.097511000000024176
10
11.659975049999998
20
12.848923100000002
42
0.054798999999996316
10
11.731978299999998
20
12.781243149999998
42
0.01385099999999293
10
11.863206399999997
20
12.6880983
42
-0.016045999999987511
10
11.987197900000002
20
12.599268949999997
42
-0.0069009999999984665
10
12.147028700000002
20
12.473278949999997
42
-0.0068199999999923036
10
12.31368835
20
12.334325350000002
42
-0.0089510000000006321
10
12.461784949999998
20
12.202713950000001
10
12.798569949999999
20
11.892451200000002
10
13.411784950000001
20
12.065751200000001
10
14.024999999999999
20
12.23905115
10
14.140046050000002
20
12.107025549999996
42
-0.034720999999998461
10
14.292434349999999
20
11.90546975
42
-0.014774999999993772
10
14.46894065
20
11.616548400000001
42
-0.0075069999999963204
10
14.631520400000001
20
11.321649299999999
42
-0.21882799999995689
10
14.636383049999999
20
11.237856750000001
42
-0.076972000000049778
10
14.612790949999999
20
11.197270049999998
42
-0.0028410000000155681
10
14.50008775
20
11.059558700000002
42
-0.0051099999999958583
10
14.363831399999997
20
10.898367599999998
42
-0.0035619999999971603
10
14.206929049999999
20
10.719151599999998
10
13.802064699999997
20
10.263303200000001
10
13.904761450000001
20
9.9592015000000007
42
-0.012738000000006763
10
13.95042495
20
9.8116912500000009
42
-0.0056670000000047698
10
14.003420550000001
20
9.6151649999999993
42
-0.0056049999999915256
10
14.054851350000003
20
9.40577255
42
-0.0075470000000009254
10
14.096409799999998
20
9.2150499000000003
10
14.185361349999999
20
8.7749999999999986
10
14.799489299999998
20
8.5500000000000007
10
15.413617250000001
20
8.3249999999999993
10
15.383274249999999
20
7.7556322499999997
42
-0.0024960000000168112
10
15.370481849999999
20
7.5362081499999976
42
-0.0039800000000146428
10
15.357117649999999
20
7.3487894999999996
42
-0.00094899999998499884
10
15.343835450000002
20
7.185260200000001
42
-0.17744199999997601
10
15.336839950000002
20
7.1701732999999992
42
-0.13772899999988927
10
15.321855750000003
20
7.1617589999999982
42
-0.00058400000009688994
10
15.138058500000001
20
7.1174112499999964
42
-0.0027969999999992736
10
14.928474500000002
20
7.0683386499999932
42
-0.0017530000000234903
10
14.682733450000001
20
7.0131540000000028
10
14.0447182
20
6.8722259499999989
10
13.894141549999999
20
6.4236130000000005
42
-0.009129999999987282
10
13.826202399999998
20
6.2328227000000007
42
-0.007377000000007003
10
13.746528749999998
20
6.0304768500000003
42
-0.0074660000000053243
10
13.6674427
20
5.8458926500000006
42
-0.019017000000007365
10
13.603077999999998
20
5.7152443999999996
10
13.46259115
20
5.4554888500000001
10
13.8302779
20
4.9052410499999999
10
14.197964699999998
20
4.3549933000000003
10
14.01805345
20
4.1149966500000001
42
-0.0093010000000069253
10
13.934791449999999
20
4.0081286999999994
42
-0.0056669999999815019
10
13.832695149999996
20
3.8848811500000004
42
-0.0056780000000009757
10
13.728680449999999
20
3.76496355
42
-0.010004999999993309
10
13.639687900000002
20
3.6686413000000004
10
13.4412337
20
3.4622826500000001
10
12.835990199999999
20
3.7230874499999995
10
12.23074665
20
3.9838923000000004
10
11.977873349999999
20
3.7924110500000001
42
-0.013824999999996732
10
11.85411365
20
3.7039722499999983
42
-0.0062439999999994679
10
11.687322
20
3.594618999999998
42
-0.0061770000000080649
10
11.508281149999998
20
3.4834935999999992
42
-0.0083959999999948468
10
11.343861200000001
20
3.3879649000000001
10
10.962722400000001
20
3.1749999999999998
10
10.93171665
20
2.8500000000000001
42
0.0075749999999903412
10
10.919798800000004
20
2.7012791499999995
42
0.0043530000000077951
10
10.909714450000001
20
2.5217384000000003
42
0.0043480000000175704
10
10.902720450000004
20
2.3411339999999994
42
0.0072379999999942777
10
10.900355449999999
20
2.1888967500000001
10
10.9
20
1.8527934999999998
10
10.637500000000001
20
1.7793514499999945
42
-0.007165000000013644
10
10.016013899999997
20
1.615037350000005
42
-0.13405600000000031
10
9.8155139499999997
20
1.6195247499999998
42
-0.17706099999999275
10
9.6680152999999986
20
1.7292038500000002
42
-0.014637000000000323
10
9.4132409999999993
20
2.1432199000000001
10
9.1014820000000007
20
2.6847324000000001
10
8.4882409999999986
20
2.7188995499999966
42
-0.0029189999999779674
10
8.2418514500000004
20
2.7340707999999982
42
-0.0034339999999956593
10
8.0086633499999991
20
2.7514057999999939
42
-0.0030190000000139459
10
7.8119282999999999
20
2.7685864499999999
42
-0.021291999999994402
10
7.7167831999999983
20
2.7815796999999995
42
0.10132200000000309
10
7.6126310000000004
20
2.7791155999999995
42
0.12242799999999476
10
7.5256343499999998
20
2.73500605
42
0.0453209999999983
10
7.4155278500000019
20
2.6208450999999973
42
0.0039990000000177982
10
7.1667832000000011
20
2.3060631499999995
42
-0.011669999999996338
10
6.8629310000000006
20
1.9334398999999998
42
-0.15417799999999976
10
6.7140632499999988
20
1.84064045
42
-0.15203700000000175
10
6.5380634999999998
20
1.8494979000000022
42
-0.01125600000000072
10
6.0841844499999995
20
2.0279248999999999
10
5.6433689499999993
20
2.2127773500000001
10
5.67006985
20
2.3938887000000002
42
0.009380999999982733
10
5.6823598000000048
20
2.48967165
42
0.0026509999999734923
10
5.6979094000000039
20
2.639298549999999
42
0.0026699999999809897
10
5.7136818999999974
20
2.8085749500000001
42
0.0028179999999918305
10
5.7273478000000022
20
2.9749999999999996
42
-0.0036239999999933092
10
5.7406629499999999
20
3.1340121999999995
42
-0.0045710000000011002
10
5.7553949499999986
20
3.2809428499999997
42
-0.0036590000000196396
10
5.769764949999999
20
3.4038504499999989
42
-0.036233999999992529
10
5.7798895999999997
20
3.4548053499999991
42
0.20107800000000683
10
5.7740051999999995
20
3.5004234499999987
42
0.05781700000000814
10
5.7305624000000002
20
3.5586920500000003
42
0.040032000000005695
10
5.6534699500000007
20
3.6283269000000002
42
0.016263000000004739
10
5.5384272000000001
20
3.7108170500000002
42
-0.016067999999997029
10
5.4136200500000005
20
3.8002347999999997
42
-0.0068970000000057831
10
5.2526391999999991
20
3.9271464499999991
42
-0.0068159999999942234
10
5.084725849999999
20
4.067158049999998
42
-0.0089359999999965769
10
4.9354508500000005
20
4.1998189500000009
10
4.5959016999999998
20
4.5126144999999998
10
3.9854508499999999
20
4.3358518999999998
10
3.3749999999999996
20
4.1590892500000001
10
3.2599539499999999
20
4.2920446500000011
42
-0.033988999999999041
10
3.1069322999999995
20
4.4952866999999994
42
-0.014752999999996911
10
2.9306235499999982
20
4.7842122499999977
42
-0.0074740000000122399
10
2.7684482000000017
20
5.0786531500000018
42
-0.21874199999999899
10
2.7636169500000003
20
5.1621432500000006
42
-0.076971999999999569
10
2.7872090499999995
20
5.2027299499999957
42
-0.0028409999999862577
10
2.8999122500000012
20
5.3404412999999984
42
-0.0051099999999917843
10
3.0361686000000003
20
5.5016323999999974
42
-0.0035619999999854718
10
3.1930709499999996
20
5.6808484000000004
10
3.5979353000000001
20
6.1366968000000002
10
3.4952385499999994
20
6.4407984999999988
42
-0.012738000000004038
10
3.4495750499999991
20
6.5883087499999986
42
-0.0056669999999986462
10
3.3965794500000004
20
6.7848350000000011
42
-0.0056049999999989546
10
3.3451486500000023
20
6.9942274500000003
42
-0.0075469999999981672
10
3.3035901999999995
20
7.1849501
10
3.2146386499999995
20
7.6250000000000009
10
2.6005107000000001
20
7.8500000000000005
10
1.9863827499999998
20
8.0749999999999993
10
2.0167257500000044
20
8.6443677500000007
42
-0.0024959999999806704
10
2.0295181499999995
20
8.8637918500000019
42
-0.003980000000019873
10
2.0428823499999984
20
9.0512104999999998
42
-0.00094900000007274062
10
2.0561645499999996
20
9.2147398000000003
42
-0.17744200000002264
10
2.06316005
20
9.2298267000000003
42
-0.13772899999996935
10
2.0781442499999976
20
9.2382410000000021
42
-0.00058400000000183641
10
2.2619414999999994
20
9.2825887500000022
42
-0.0027969999999918308
10
2.4715255000000003
20
9.3316613499999956
42
-0.0017530000000155737
10
2.7172665500000011
20
9.3868459999999985
10
3.3552817999999998
20
9.5277740500000014
10
3.5058584499999981
20
9.9763870000000008
42
-0.0091300000000002057
10
3.5737975999999989
20
10.167177300000002
42
-0.0073769999999975956
10
3.6534712499999999
20
10.369523150000003
42
-0.0074660000000006761
10
3.7325572999999994
20
10.554107350000001
42
-0.019016999999990555
10
3.7969220000000004
20
10.684755600000001
10
3.9374088499999997
20
10.94451115
10
3.5656405999999996
20
11.500866950000001
10
3.1938722999999993
20
12.057222750000001
10
3.3801308999999997
20
12.29111135
42
-0.0066390000000137494
10
3.4656626999999975
20
12.395636799999998
42
-0.0040469999999893499
10
3.5693063499999993
20
12.516913100000002
42
-0.0040549999999939593
10
3.6740036999999983
20
12.635477800000002
42
-0.0071660000000136406
10
3.7625778999999997
20
12.731358699999999
10
3.9587663000000002
20
12.937717349999998
10
4.5640097999999991
20
12.676912550000001
10
5.16925335
20
12.416107700000001
10
5.4221266500000009
20
12.607588950000002
42
-0.013825000000005271
10
5.5458863500000009
20
12.696027750000001
42
-0.0062439999999994679
10
5.7126780000000004
20
12.805381000000001
42
-0.0061770000000046952
10
5.8917188500000028
20
12.916506399999999
42
-0.0083960000000097273
10
6.0561388000000012
20
13.012035099999997
10
6.4372776000000007
20
13.225
10
6.468283350000001
20
13.549999999999999
42
0.0075750000000022527
10
6.4802012000000007
20
13.698720850000001
42
0.0043529999999727242
10
6.4902855500000003
20
13.878261599999998
42
0.0043479999999680944
10
6.4972795499999974
20
14.058866
42
0.0072379999999885236
10
6.4996445499999993
20
14.211103249999999
10
6.5
20
14.5472065
10
6.7624999999999984
20
14.62120745
42
-0.0073829999999955676
10
7.3804011500000009
20
14.7855907
42
-0.13460899999998899
10
7.5822172999999982
20
14.781076999999996
42
-0.17626500000000594
10
7.7310530000000011
20
14.67051275
42
-0.01475499999999615
10
7.9873065500000004
20
14.25574825
10
8.2996130500000014
20
13.71521585
10
8.9123065500000003
20
13.681074550000007
42
-0.0029209999999886202
0
LWPOLYLINE
5
102
100
AcDbEntity
8
0
100
AcDbPolyline
90
32
70
1
43
0.0
10
11.48734675
20
7.2472454499999985
42
0.032673999999992882
10
11.581840650000002
20
7.5519793500000008
42
0.03424500000000328
10
11.633055149999999
20
7.8559882000000005
42
0.024612999999998973
10
11.650000000000002
20
8.2000000000000011
42
0.024612999999998407
10
11.633055149999999
20
8.5440118000000016
42
0.034245000000002669
10
11.581840649999998
20
8.8480206500000005
42
0.032674000000004824
10
11.487346750000004
20
9.1527545500000009
42
0.019775000000005153
10
11.3382545
20
9.5
42
0.057601000000002567
10
11.001134050000001
20
10.037504650000001
42
0.054848999999998399
10
10.545283150000001
20
10.4938646
42
0.054072000000002465
10
9.9944636000000013
20
10.845625600000004
42
0.052890999999999994
10
9.3769950500000014
20
11.0742484
42
0.039989000000001926
10
9.0748029500000005
20
11.125806949999999
42
0.021664999999996739
10
8.6978766000000007
20
11.143055500000001
42
0.021647999999997579
10
8.3191523499999995
20
11.1275636
42
0.038365999999997881
10
8.0108491499999985
20
11.077535599999999
42
0.075308999999999349
10
7.2600528500000001
20
10.770761999999996
42
0.065301000000001497
10
6.5921222999999998
20
10.243059200000001
42
0.065524999999999542
10
6.0848597999999994
20
9.5629844999999989
42
0.076932999999999682
10
5.8045045000000002
20
8.8100389499999991
42
0.062689999999998483
10
5.7481656499999998
20
8.0860569500000015
42
0.061747999999998818
10
5.8722935500000002
20
7.3667958000000002
42
0.061525999999997978
10
6.1689564999999993
20
6.6973296500000004
42
0.061420000000000578
10
6.6197410000000003
20
6.1197410000000003
42
0.037622000000000939
10
6.9398705999999999
20
5.8444743499999996
42
0.032183999999998575
10
7.3142525500000009
20
5.6041706000000007
42
0.032685000000003975
10
7.7090162500000012
20
5.4178674500000001
42
0.043206999999997886
10
8.0899610499999994
20
5.3045044999999993
42
0.08418199999999762
10
9.0553004999999995
20
5.2707903999999992
42
0.081054000000001972
10
9.9915671499999998
20
5.5550975499999993
42
0.081444999999999337
10
10.785196599999999
20
6.1205964999999996
42
0.086229000000000139
10
11.3382545
20
6.8999999999999995
42
0.0197749999999925
0
ENDSEC
0
SECTION
2
OBJECTS
0
DICTIONARY
5
C
100
AcDbDictionary
3
ACAD_GROUP
350
D
3
ACAD_MLINESTYLE
350
17
0
DICTIONARY
5
D
100
AcDbDictionary
0
DICTIONARY
5
1A
330
C
100
AcDbDictionary
0
DICTIONARY
5
17
100
AcDbDictionary
0
ENDSEC
0
EOF
