0
SECTION
2
HEADER
9
$INSUNITS
70
1
9
$ACADVER
1
AC1014
9
$HANDSEED
5
FFFF
0
ENDSEC
0
SECTION
2
TABLES
0
TABLE
2
VPORT
5
8
100
AcDbSymbolTable
0
ENDTAB
0
TABLE
2
LTYPE
5
5
100
AcDbSymbolTable
0
LTYPE
5
14
100
AcDbSymbolTableRecord
100
AcDbLinetypeTableRecord
2
BYBLOCK
70
0
0
LTYPE
5
15
100
AcDbSymbolTableRecord
100
AcDbLinetypeTableRecord
2
BYLAYER
70
0
0
LTYPE
5
16
100
AcDbSymbolTableRecord
100
AcDbLinetypeTableRecord
2
DASHED
70
0
3
Dashed __ __ __ __ __ __ __ __ __ __ __ __ __ _
72
65
73
2
40
0.75
49
0.5
74
0
49
-0.25
74
0
0
ENDTAB
0
TABLE
2
LAYER
5
2
100
AcDbSymbolTable
70
3
0
LAYER
5
50
100
AcDbSymbolTableRecord
100
AcDbLayerTableRecord
2
1
70
0
62
7
6
DASHED
0
LAYER
5
51
100
AcDbSymbolTableRecord
100
AcDbLayerTableRecord
2
0
70
0
62
7
6
CONTINUOUS
0
ENDTAB
0
TABLE
2
STYLE
5
3
100
AcDbSymbolTable
70
1
0
STYLE
5
11
100
AcDbSymbolTableRecord
100
AcDbTextStyleTableRecord
2
STANDARD
70
0
0
ENDTAB
0
TABLE
2
VIEW
5
6
100
AcDbSymbolTable
70
0
0
ENDTAB
0
TABLE
2
UCS
5
7
100
AcDbSymbolTable
70
0
0
ENDTAB
0
TABLE
2
APPID
5
9
100
AcDbSymbolTable
70
2
0
APPID
5
12
100
AcDbSymbolTableRecord
100
AcDbRegAppTableRecord
2
ACAD
70
0
0
ENDTAB
0
TABLE
2
DIMSTYLE
5
A
100
AcDbSymbolTable
70
1
0
ENDTAB
0
TABLE
2
BLOCK_RECORD
5
1
100
AcDbSymbolTable
70
1
0
BLOCK_RECORD
5
1F
100
AcDbSymbolTableRecord
100
AcDbBlockTableRecord
2
*MODEL_SPACE
0
BLOCK_RECORD
5
1B
100
AcDbSymbolTableRecord
100
AcDbBlockTableRecord
2
*PAPER_SPACE
0
ENDTAB
0
ENDSEC
0
SECTION
2
BLOCKS
0
BLOCK
5
20
100
AcDbEntity
100
AcDbBlockBegin
2
*MODEL_SPACE
0
ENDBLK
5
21
100
AcDbEntity
100
AcDbBlockEnd
0
BLOCK
5
1C
100
AcDbEntity
100
AcDbBlockBegin
2
*PAPER_SPACE
0
ENDBLK
5
1D
100
AcDbEntity
100
AcDbBlockEnd
0
ENDSEC
0
SECTION
2
ENTITIES
0
POINT
5
100
100
AcDbEntity
8
0
100
AcDbPoint
10
0
20
0
30
0
0
POINT
5
101
100
AcDbEntity
8
0
100
AcDbPoint
10
0
20
0
30
0
0
POINT
5
102
100
AcDbEntity
8
0
100
AcDbPoint
10
1.1095134436723921
20
1.3144557337665328
30
0
0
POINT
5
103
100
AcDbEntity
8
0
100
AcDbPoint
10
0
20
-1.0000000319142979
30
0
0
LINE
5
104
100
AcDbEntity
8
0
100
AcDbLine
10
-2.5
20
2.5
30
0
11
-2.5
21
-2.5
31
0
0
LINE
5
105
100
AcDbEntity
8
0
100
AcDbLine
10
-2.5
20
-2.5
30
0
11
2.5
21
-2.5
31
0
0
LINE
5
106
100
AcDbEntity
8
0
100
AcDbLine
10
2.5
20
-2.5
30
0
11
2.5
21
2.5
31
0
0
LINE
5
107
100
AcDbEntity
8
1
100
AcDbLine
10
2.5
20
2.5
30
0
11
-2.5
21
-2.5
31
0
0
LINE
5
108
100
AcDbEntity
8
1
100
AcDbLine
10
-2.5
20
2.5
30
0
11
2.5
21
-2.5
31
0
0
LINE
5
109
100
AcDbEntity
8
0
100
AcDbLine
10
-1.75
20
2.9000000925514637
30
0
11
-1.7500000000000002
21
2.5
31
0
0
LINE
5
110
100
AcDbEntity
8
0
100
AcDbLine
10
1.75
20
2.5
30
0
11
1.75
21
2.9000000925514637
31
0
0
LINE
5
111
100
AcDbEntity
8
0
100
AcDbLine
10
0.79999999999999993
20
2.9000000925514637
30
0
11
0.79999999999999993
21
3.2000001021257534
31
0
0
LINE
5
112
100
AcDbEntity
8
0
100
AcDbLine
10
-0.79999999999999993
20
3.2000001021257534
30
0
11
-0.79999999999999993
21
2.9000000925514637
31
0
0
LINE
5
113
100
AcDbEntity
8
0
100
AcDbLine
10
1.75
20
2.9000000925514637
30
0
11
0.79999999999999993
21
2.9000000925514637
31
0
0
LINE
5
114
100
AcDbEntity
8
0
100
AcDbLine
10
-0.79999999999999993
20
2.9000000925514637
30
0
11
-1.75
21
2.9000000925514637
31
0
0
LINE
5
115
100
AcDbEntity
8
0
100
AcDbLine
10
2.5
20
2.5
30
0
11
1.75
21
2.5
31
0
0
LINE
5
116
100
AcDbEntity
8
0
100
AcDbLine
10
-1.7500000000000002
20
2.5
30
0
11
-2.5
21
2.5
31
0
0
LINE
5
117
100
AcDbEntity
8
0
100
AcDbLine
10
-0.099999999999999992
20
3.2000001021257534
30
0
11
-0.099999999999999992
21
3.7171574151825721
31
0
0
LINE
5
118
100
AcDbEntity
8
0
100
AcDbLine
10
0.099999999999999992
20
3.7171574151825721
30
0
11
0.099999999999999992
21
3.2000001021257534
31
0
0
ARC
5
119
100
AcDbEntity
8
0
100
AcDbCircle
10
0
20
4.0000001276571915
30
0
40
0.30000000000000027
210
0
220
0
230
1
100
AcDbArc
50
-70.528779365509365
51
250.52877936550931
0
LINE
5
120
100
AcDbEntity
8
0
100
AcDbLine
10
0.79999999999999993
20
3.2000001021257534
30
0
11
0.099999999999999992
21
3.2000001021257534
31
0
0
LINE
5
121
100
AcDbEntity
8
0
100
AcDbLine
10
-0.099999999999999992
20
3.2000001021257534
30
0
11
-0.79999999999999993
21
3.2000001021257534
31
0
0
LWPOLYLINE
5
122
100
AcDbEntity
8
0
100
AcDbPolyline
90
4
70
1
43
0.0
10
1.5595134436723921
20
1.0644557337665328
10
0.65951344367239229
20
1.0644557337665328
10
0.65951344367239229
20
1.5644557337665326
10
1.5595134436723921
20
1.5644557337665326
0
LINE
5
123
100
AcDbEntity
8
1
100
AcDbLine
10
1.5595134436723921
20
1.0644557337665328
30
0
11
0.65951344367239229
21
1.5644557337665326
31
0
0
LINE
5
124
100
AcDbEntity
8
1
100
AcDbLine
10
0.65951344367239229
20
1.0644557337665328
30
0
11
1.5595134436723921
21
1.5644557337665326
31
0
0
LWPOLYLINE
5
125
100
AcDbEntity
8
0
100
AcDbPolyline
90
4
70
1
43
0.0
10
-0.68103043648770079
20
1.560905802737812
10
-1.5810178139341629
20
1.5561392067784616
10
-1.5783697050678576
20
1.0561462193082054
10
-0.67838232762139516
20
1.0609128152675553
0
LWPOLYLINE
5
126
100
AcDbEntity
8
0
100
AcDbPolyline
90
4
70
1
43
0.0
10
1.6000000510628767
20
-1.3000000414885873
10
-1.6000000510628767
20
-1.3000000414885873
10
-1.6000000510628767
20
-0.70000002234000858
10
1.6000000510628767
20
-0.70000002234000858
0
LINE
5
127
100
AcDbEntity
8
1
100
AcDbLine
10
1.6000000510628767
20
-1.3000000414885873
30
0
11
-1.6000000510628767
21
-0.70000002234000858
31
0
0
LINE
5
128
100
AcDbEntity
8
1
100
AcDbLine
10
-1.6000000510628767
20
-1.3000000414885873
30
0
11
1.6000000510628767
21
-0.70000002234000858
31
0
0
ENDSEC
0
SECTION
2
OBJECTS
0
DICTIONARY
5
C
100
AcDbDictionary
3
ACAD_GROUP
350
D
3
ACAD_MLINESTYLE
350
17
0
DICTIONARY
5
D
100
AcDbDictionary
0
DICTIONARY
5
1A
330
C
100
AcDbDictionary
0
DICTIONARY
5
17
100
AcDbDictionary
0
ENDSEC
0
EOF
